<svg xmlns="http://www.w3.org/2000/svg" viewBox="0 0 420 260" role="img" aria-labelledby="title desc">
  <title id="title">Imagem de jogo de luta</title>
  <desc id="desc">Dois controles de luta com luvas coloridas em uma composicao moderna.</desc>
  <defs>
    <linearGradient id="bg" x1="0" x2="1" y1="0" y2="1">
      <stop offset="0" stop-color="#ffffff"/>
      <stop offset="1" stop-color="#eadcc3"/>
    </linearGradient>
  </defs>
  <rect width="420" height="260" fill="url(#bg)"/>
  <circle cx="118" cy="92" r="58" fill="#ff5b00"/>
  <circle cx="302" cy="92" r="58" fill="#0067e8"/>
  <path d="M86 152c22-42 84-42 106 0l18 34H68l18-34z" fill="#f6c400" stroke="#070707" stroke-width="8"/>
  <path d="M228 152c22-42 84-42 106 0l18 34H210l18-34z" fill="#ffffff" stroke="#070707" stroke-width="8"/>
  <circle cx="128" cy="168" r="14" fill="#070707"/>
  <circle cx="284" cy="168" r="14" fill="#070707"/>
  <circle cx="318" cy="168" r="14" fill="#ff5b00"/>
  <path d="M154 70c22 18 30 38 22 62" fill="none" stroke="#070707" stroke-width="10" stroke-linecap="round"/>
  <path d="M266 70c-22 18-30 38-22 62" fill="none" stroke="#070707" stroke-width="10" stroke-linecap="round"/>
</svg>
